<svg width="48" height="48" viewBox="0 0 48 48" fill="none" xmlns="http://www.w3.org/2000/svg">
<path d="M12 6C10.3431 6 9 7.34315 9 9V39C9 40.6569 10.3431 42 12 42H36C37.6569 42 39 40.6569 39 39V9C39 7.34315 37.6569 6 36 6H12Z" stroke="black" stroke-width="2" stroke-linecap="round" stroke-linejoin="round"/>
<path d="M15 12L15 24M21 21V12M33 36V12M27 12V18" stroke="black" stroke-width="2" stroke-linecap="round" stroke-linejoin="round"/>
<path d="M27 36L24 34.5M27 24L24 25.5M24 25.5L15 30L24 34.5M24 25.5V34.5" stroke="black" stroke-width="2" stroke-linecap="round" stroke-linejoin="round"/>
</svg>
